<svg xmlns="http://www.w3.org/2000/svg" xmlns:xlink="http://www.w3.org/1999/xlink" width="500" zoomAndPan="magnify" viewBox="0 0 375 74.999997" height="100" preserveAspectRatio="xMidYMid meet" version="1.0"><path fill="#fa0057" d="M 49.910156 53.535156 C 51.773438 53.535156 53.574219 53.257812 55.320312 52.699219 C 57.066406 52.132812 58.351562 51.589844 59.175781 51.074219 L 60.414062 50.222656 L 65.601562 60.601562 C 65.429688 60.730469 65.1875 60.902344 64.878906 61.113281 C 64.578125 61.332031 63.875 61.734375 62.773438 62.320312 C 61.671875 62.898438 60.492188 63.40625 59.242188 63.84375 C 57.988281 64.273438 56.34375 64.65625 54.308594 65 C 52.285156 65.355469 50.191406 65.53125 48.03125 65.53125 C 43.058594 65.53125 38.347656 64.3125 33.894531 61.871094 C 29.4375 59.421875 25.851562 56.054688 23.132812 51.78125 C 20.410156 47.5 19.054688 42.875 19.054688 37.90625 C 19.054688 34.144531 19.847656 30.539062 21.445312 27.078125 C 23.039062 23.621094 25.164062 20.660156 27.824219 18.195312 C 30.488281 15.734375 33.59375 13.769531 37.140625 12.300781 C 40.679688 10.835938 44.3125 10.101562 48.03125 10.101562 C 51.488281 10.101562 54.671875 10.515625 57.585938 11.335938 C 60.511719 12.152344 62.574219 12.972656 63.785156 13.792969 L 65.601562 15.015625 L 60.414062 25.390625 C 60.113281 25.132812 59.660156 24.824219 59.046875 24.460938 C 58.445312 24.085938 57.238281 23.601562 55.417969 23 C 53.605469 22.386719 51.773438 22.082031 49.910156 22.082031 C 46.972656 22.082031 44.339844 22.5625 42.007812 23.511719 C 39.667969 24.46875 37.816406 25.726562 36.449219 27.285156 C 35.085938 28.839844 34.046875 30.515625 33.332031 32.316406 C 32.625 34.105469 32.273438 35.925781 32.273438 37.777344 C 32.273438 41.847656 33.789062 45.492188 36.832031 48.714844 C 39.886719 51.925781 44.242188 53.535156 49.910156 53.535156 Z M 49.910156 53.535156 " fill-opacity="1" fill-rule="nonzero"/><path fill="#fa0057" d="M 79.207031 43.09375 L 79.207031 64.550781 L 67.015625 64.550781 L 67.015625 11.0625 L 79.207031 11.0625 L 79.207031 32.394531 L 96.460938 32.394531 L 96.460938 11.0625 L 108.636719 11.0625 L 108.636719 64.550781 L 96.460938 64.550781 L 96.460938 43.09375 Z M 79.207031 43.09375 " fill-opacity="1" fill-rule="nonzero"/><path fill="#fa0057" d="M 114.28125 12.75 C 115.617188 11.414062 117.210938 10.742188 119.066406 10.742188 C 120.929688 10.742188 122.527344 11.414062 123.867188 12.75 C 125.207031 14.089844 125.875 15.691406 125.875 17.554688 C 125.875 19.410156 125.207031 21.007812 123.867188 22.355469 C 122.527344 23.695312 120.929688 24.363281 119.066406 24.363281 C 117.210938 24.363281 115.617188 23.695312 114.28125 22.355469 C 112.9375 21.007812 112.273438 19.410156 112.273438 17.554688 C 112.273438 15.691406 112.9375 14.089844 114.28125 12.75 Z M 113.171875 31.300781 L 113.171875 64.550781 L 124.65625 64.550781 L 124.65625 31.300781 Z M 113.171875 31.300781 " fill-opacity="1" fill-rule="nonzero"/><path fill="#fa0057" d="M 141.699219 11.0625 L 141.699219 53.855469 L 160.105469 53.855469 L 160.105469 64.550781 L 129.507812 64.550781 L 129.507812 11.0625 Z M 141.699219 11.0625 " fill-opacity="1" fill-rule="nonzero"/><path fill="#fa0057" d="M 175.082031 11.0625 L 175.082031 53.855469 L 193.488281 53.855469 L 193.488281 64.550781 L 162.890625 64.550781 L 162.890625 11.0625 Z M 175.082031 11.0625 " fill-opacity="1" fill-rule="nonzero"/><path fill="#fa0057" d="M 227.195312 11.0625 L 227.195312 21.761719 L 208.464844 21.761719 L 208.464844 32.394531 L 225.78125 32.394531 L 225.78125 43.09375 L 208.464844 43.09375 L 208.464844 64.550781 L 196.273438 64.550781 L 196.273438 11.0625 Z M 227.195312 11.0625 " fill-opacity="1" fill-rule="nonzero"/><path fill="#fa0057" d="M 241.980469 11.0625 L 241.980469 53.855469 L 260.386719 53.855469 L 260.386719 64.550781 L 229.789062 64.550781 L 229.789062 11.0625 Z M 241.980469 11.0625 " fill-opacity="1" fill-rule="nonzero"/><path fill="#fa0057" d="M 263.171875 11.0625 L 275.363281 11.0625 L 275.363281 64.550781 L 263.171875 64.550781 Z M 263.171875 11.0625 " fill-opacity="1" fill-rule="nonzero"/><path fill="#fa0057" d="M 329.945312 64.550781 L 314.1875 64.550781 L 301.546875 46.335938 L 288.90625 64.550781 L 273.808594 64.550781 L 294.03125 35.769531 L 277.179688 11.0625 L 291.703125 11.0625 L 301.546875 25.648438 L 311.410156 11.0625 L 326.574219 11.0625 L 309.066406 35.769531 Z M 329.945312 64.550781 " fill-opacity="1" fill-rule="nonzero"/><path fill="#fa0057" d="M 350.226562 50.675781 C 352.304688 50.675781 354.066406 51.40625 355.511719 52.859375 C 356.957031 54.304688 357.679688 56.0625 357.679688 58.128906 C 357.679688 60.164062 356.957031 61.910156 355.511719 63.363281 C 354.066406 64.808594 352.304688 65.53125 350.226562 65.53125 C 348.203125 65.53125 346.460938 64.808594 345.007812 63.363281 C 343.5625 61.910156 342.839844 60.164062 342.839844 58.128906 C 342.839844 56.0625 343.5625 54.304688 345.007812 52.859375 C 346.460938 51.40625 348.203125 50.675781 350.226562 50.675781 Z M 350.226562 50.675781 " fill-opacity="1" fill-rule="nonzero"/></svg>